# xmcd
#
# Track frame offsets: 
#        150
#        13714
#        30402
#        46223
#        62150
#        78694
#        93883
#        111215
#        121809
#        136802
#        156692
#        173263
#        194150
#        206286
#        223802
#        244633
#        257664
#        278494
#        304151
#        324537
#
# Disc length: 4555 seconds
#
# Revision: 1
# Processed by: cddbd v1.5.2PL0 Copyright (c) Steve Scherf et al.
# Submitted via: ExactAudioCopy v1.0b2
#
DISCID=1411c914
DTITLE=Various Artist - Aura II Beautiful Moments
DYEAR=2007
DGENRE=New Age
TTITLE0=Sarah Brightman - Ave Maria
TTITLE1=Natasha Marsh - I Will Follow (Etupirka) feat. Iwao Furusawa
TTITLE2=Music Biscuit (Billy Valentine) - My Sunflower Girl
TTITLE3=Toshio Nakagawa - Nesan no Koi
TTITLE4=Jin Oki - Furinkazan - junreiki
TTITLE5=Celtic Woman - Beyond the Sea
TTITLE6=Gregorian - Only You
TTITLE7=Yusuke Honma - Have a Good Die. - Main Theme
TTITLE8=Il Divo - Mama
TTITLE9=Amici Forever - So Far Away
TTITLE10=Ryuichi Sakamoto - Rain
TTITLE11=Adiemus - Zarabanda (Saraband)
TTITLE12=Libera - Do Not Stand at My Grave and Weep
TTITLE13=Bill Douglas featuring the Ars Nova Singers - The Hills of Gl
TTITLE13=encar
TTITLE14=Toshiyuki Kishi - Gaia no Yoake - Kodou
TTITLE15=Akira Senju - Ai ni Iyasarete
TTITLE16=Kobudo - Best Friend
TTITLE17=Twelve Girls Band - My Heart Will Go On (Theme From Titanic)
TTITLE18=Maksim - Claudine
TTITLE19=Nuno Guerreiro - Amapola
EXTD=YEAR: 2007
EXTT0=
EXTT1=
EXTT2=
EXTT3=
EXTT4=
EXTT5=
EXTT6=
EXTT7=
EXTT8=
EXTT9=
EXTT10=
EXTT11=
EXTT12=
EXTT13=
EXTT14=
EXTT15=
EXTT16=
EXTT17=
EXTT18=
EXTT19=
PLAYORDER=
